<?xml version="1.0" standalone="no"?>
<!DOCTYPE svg PUBLIC "-//W3C//DTD SVG 20010904//EN"
 "http://www.w3.org/TR/2001/REC-SVG-20010904/DTD/svg10.dtd">
<svg version="1.0" xmlns="http://www.w3.org/2000/svg"
 width="420.000000pt" height="377.000000pt" viewBox="0 0 420.000000 377.000000"
 preserveAspectRatio="xMidYMid meet">

<g transform="translate(0.000000,377.000000) scale(0.100000,-0.100000)"
fill="#000000" stroke="none">
<path d="M914 3182 c-7 -4 -152 -176 -324 -382 l-311 -375 4 -610 c4 -485 7
-617 18 -642 8 -19 143 -159 325 -337 l311 -304 94 -7 c52 -3 643 -5 1314 -3
1140 3 1223 4 1264 21 71 28 206 137 198 160 -3 9 -240 13 -937 15 -514 1
-937 6 -941 10 -4 4 15 77 42 162 78 243 119 399 119 450 0 51 -20 119 -56
186 -37 70 -18 51 40 -40 46 -70 70 -96 91 -96 15 0 75 66 75 82 0 10 -31 52
-70 93 -38 41 -70 76 -70 79 0 3 20 -9 45 -26 61 -43 144 -51 181 -17 l24 23
0 -230 c-1 -228 8 -323 36 -376 24 -46 75 -98 118 -121 41 -22 44 -22 596 -22
l555 0 60 28 c69 32 97 56 134 112 l26 40 5 605 c3 333 2 610 -1 615 -4 6 -14
34 -24 63 -22 69 -97 159 -161 194 -34 18 -77 30 -134 37 -46 6 -87 14 -91 18
-24 29 -395 472 -443 531 l-60 72 -1020 0 c-562 0 -1026 -4 -1032 -8z m1981
-202 c36 -29 385 -415 378 -417 -5 -1 -161 -3 -348 -6 -315 -4 -343 -5 -385
-24 -51 -23 -107 -78 -145 -143 -15 -25 -24 -36 -20 -25 27 76 29 362 2 442
-28 87 -66 26 -104 -169 -21 -113 -26 -171 -30 -385 l-5 -252 -55 -16 c-30 -9
-57 -14 -60 -12 -14 15 -80 360 -88 462 -4 44 -13 112 -22 150 -28 128 -57
154 -107 94 -23 -27 -26 -39 -26 -112 0 -85 42 -372 86 -587 22 -111 24 -129
12 -164 -7 -22 -17 -41 -23 -42 -19 -5 -125 163 -273 433 -23 43 -53 91 -66
108 -23 29 -25 29 -43 12 -31 -27 -44 -84 -32 -136 10 -45 79 -189 124 -261
48 -76 154 -298 235 -490 96 -229 95 -214 26 -411 -26 -74 -62 -174 -80 -224
l-31 -90 -414 -3 -415 -2 -261 257 -262 258 -2 576 -1 577 105 132 c100 125
286 340 384 442 l45 48 942 -3 c819 -2 943 -4 959 -17z m737 -532 c53 -24 116
-92 144 -154 l24 -55 0 -550 c0 -595 2 -577 -54 -637 -50 -55 -44 -55 -546
-59 -256 -2 -475 -1 -486 2 -21 5 -21 7 26 152 69 216 77 266 58 355 -9 40
-19 82 -23 93 -3 11 3 2 14 -20 24 -45 55 -75 80 -75 47 0 97 25 143 72 54 55
59 57 23 8 -13 -18 -32 -66 -41 -107 -15 -67 -15 -79 0 -143 17 -76 48 -132
84 -152 28 -15 89 -1 172 40 47 24 60 36 90 92 55 100 98 160 163 223 69 68
66 82 -18 80 -86 -2 -158 -60 -214 -171 -61 -120 -136 -139 -111 -29 16 75
105 262 205 432 161 275 202 398 124 378 -34 -9 -119 -127 -200 -279 -62 -115
-79 -135 -106 -128 -18 5 -23 14 -23 38 0 28 18 189 36 335 6 46 4 56 -11 67
-27 20 -43 17 -56 -8 -22 -40 -48 -161 -64 -287 -8 -69 -17 -126 -19 -129 -3
-2 -21 2 -42 10 l-37 13 7 105 c3 58 9 150 12 205 5 81 3 104 -9 120 -13 16
-19 18 -34 9 -40 -24 -48 -61 -51 -257 -4 -205 -2 -198 -68 -210 l-31 -6 -11
77 c-7 42 -12 99 -12 125 0 59 -18 133 -36 148 -21 17 -49 2 -68 -38 -16 -35
-16 -44 -1 -162 9 -69 21 -134 26 -144 5 -10 7 -57 4 -107 -5 -73 -1 -108 20
-199 14 -60 25 -122 25 -138 0 -28 -93 -341 -111 -376 -14 -25 -55 -21 -119
11 -101 50 -95 9 -95 672 l0 575 26 56 c33 70 86 124 136 137 24 7 212 10 528
9 433 -2 494 -4 527 -19z"/>
<path d="M1073 2339 c-36 -14 -67 -37 -101 -74 -56 -61 -78 -121 -69 -190 14
-102 71 -161 233 -241 67 -34 134 -75 156 -96 33 -33 38 -44 38 -82 0 -57 -33
-98 -97 -122 -100 -39 -200 -13 -264 66 l-33 40 -28 -27 c-15 -15 -28 -32 -28
-39 0 -16 101 -99 150 -124 58 -29 153 -43 213 -30 138 29 249 143 264 269 13
114 -33 169 -218 262 -145 72 -204 115 -224 162 -16 39 -8 70 26 103 23 22 40
29 89 32 50 4 69 0 116 -23 l56 -28 32 32 31 32 -25 19 c-14 10 -52 33 -84 50
-72 37 -152 40 -233 9z"/>
<path d="M937 1312 c-24 -26 -22 -88 2 -102 12 -6 132 -10 321 -10 349 0 359
2 360 77 0 22 -6 36 -19 43 -12 6 -136 10 -334 10 -291 0 -315 -1 -330 -18z"/>
</g>
</svg>
